<svg 
          width="25.775821685791016" 
          height="26.160768508911133" fill="none" 
          xmlns="http://www.w3.org/2000/svg">
          <path d="M 4.34156548646604 3.957367289043147 L 0.4660347715955929 8.39661065448275 C -0.1447728850412211 9.096262687803842 -0.15643220985720313 10.136112902107435 0.4385344144531566 10.84928404688363 L 4.07739940190811 15.211101149820404 C 4.094418104684466 15.202265694495516 4.11151067648621 15.193352406448353 4.128677837986763 15.184359844332207 L 6.962482108032379 13.38961798409311 L 3.777983378770952 10.03751397712582 C 3.5567665472581065 9.804654326893688 3.573066017962863 9.43468296762105 3.8139035436293254 9.222179456957171 L 4.678075651460203 8.459674617705833 C 4.858291210177995 8.300660924751893 5.119204174925106 8.27260366971857 5.3291078751153504 8.389664804693087 L 9.550844109604439 10.74409456407607 C 9.755628506166826 10.858301111893827 10.009595980843766 10.834612578734848 10.189726860434892 10.684504246421174 L 14.225178024676126 7.321628334825735 C 14.35193438955108 7.215997799925284 14.518300406850086 7.170180991419594 14.677737869904254 7.212659640947725 C 15.039775368389531 7.309116004046721 15.6986150075233 7.540539352283543 16.030652312945943 8.00539168270247 C 16.358382874020016 8.464214859838524 16.45870061386624 9.059485285182335 16.489407066878943 9.380917132016377 C 16.503491908168847 9.528354648878661 16.44497466793872 9.670508909379873 16.34142975252474 9.776407534768158 L 12.597580349544566 13.605344345997846 C 12.444392566375072 13.762012967856583 12.39523687385042 13.99294697888577 12.471338545490376 14.198421041650876 L 14.095889213408789 18.58470716698944 C 14.179715062747537 18.811034633937332 14.11101182442124 19.065621144457776 13.924704773634122 19.219051060261858 L 13.089640304837147 19.906750726000304 C 12.8395738353742 20.112687461058933 12.468072453558026 20.06749691769821 12.274671093639828 19.807613458022956 L 9.607365084465503 16.223420921312737 C 9.101068225791728 16.840470095426376 8.106623227140641 17.743730368198044 6.7726415954746715 18.44182214370687 L 6.778534542017218 18.448886183926653 C 6.591942825229817 18.555346934531368 6.36041351743587 18.665066570044658 6.095891780545942 18.763855032118478 C 5.277812863548074 19.11507807407652 4.358013776231703 19.374356168134078 3.3637031831731545 19.451681536367293 C 4.604305718665595 20.10499643502082 6.245115859914041 20.505386695909138 7.907077405656861 19.812903200444218 L 7.838817381482903 19.719821029990502 L 12.633190264496303 25.466719710920465 C 13.229508601887115 26.181512370744052 14.259284614877005 26.354407673850357 15.057499610442534 25.875476989453315 C 15.655776738184654 25.516512474322358 16.404356072728852 25.5158148625153 17.002633200470974 25.874782260339675 L 17.03056938486321 25.891542239869498 C 17.584440057908168 26.223864902435164 18.269705349949135 26.250183893337685 18.847433195837983 25.961320716735482 L 21.288209929395467 24.740929575708805 C 21.675707378407235 24.54718375111313 21.98484024124516 24.226138185197044 22.163806512592092 23.831596909253 L 25.607086094292193 16.240728612591898 C 25.878223613163357 15.642994925722766 25.819687635424348 14.94736929443268 25.452475701794704 14.403351716706766 L 21.03148299619934 7.853730299310073 C 20.972312825852107 7.766071916521537 20.905888356874904 7.683536800609398 20.832905759789938 7.6069955249857655 L 14.138063021855636 0.5855757472121428 C 13.576153957501447 -0.003744393539015567 12.699868410516796 -0.1667232988519654 11.963650066445602 0.1811602553870193 L 4.95760577262576 3.491708164803974 C 4.72238697726613 3.602855814568999 4.512659481726693 3.761386656375493 4.34156548646604 3.957367289043147 Z" fill="rgb(33.78810614347458,71.62624776363373,185.14062702655792)"/>
        </svg>