<svg 
          width="25.775821685791016" 
          height="26.160768508911133" fill="none" 
          xmlns="http://www.w3.org/2000/svg">
          <path d="M 21.03148299619934 7.853730299310073 C 20.972312825852107 7.766071916521537 20.905888356874904 7.683536800609398 20.832905759789938 7.6069955249857655 L 14.138063021855636 0.5855757472121428 C 13.576153957501447 -0.003744393539015567 12.699868410516796 -0.1667232988519654 11.963650066445602 0.1811602553870193 L 4.95760577262576 3.491708164803974 C 4.72238697726613 3.602855814568999 4.512659481726693 3.761386656375493 4.34156548646604 3.957367289043147 L 0.4660347715955929 8.39661065448275 C -0.1447728850412211 9.096262687803842 -0.15643220985720313 10.136112902107435 0.4385344144531566 10.84928404688363 L 4.07739940190811 15.211101149820404 C 4.094418104684466 15.202265694495516 4.11151067648621 15.193352406448353 4.128677837986763 15.184359844332207 L 6.962482108032379 13.38961798409311 L 3.777983378770952 10.03751397712582 C 3.5567665472581065 9.804654326893688 3.573066017962863 9.43468296762105 3.8139035436293254 9.222179456957171 L 4.678075651460203 8.459674617705833 C 4.858291210177995 8.300660924751893 5.119204174925106 8.27260366971857 5.3291078751153504 8.389664804693087 L 9.550844109604439 10.74409456407607 C 9.755628506166826 10.858301111893827 10.009595980843766 10.834612578734848 10.189726860434892 10.684504246421174 L 14.225178024676126 7.321628334825735 C 14.35193438955108 7.215997799925284 14.518300406850086 7.170180991419594 14.677737869904254 7.212659640947725 C 15.039775368389531 7.309116004046721 15.6986150075233 7.540539352283543 16.030652312945943 8.00539168270247 C 16.358382874020016 8.464214859838524 16.45870061386624 9.059485285182335 16.489407066878943 9.380917132016377 C 16.503491908168847 9.528354648878661 16.44497466793872 9.670508909379873 16.34142975252474 9.776407534768158 L 12.597580349544566 13.605344345997846 C 12.444392566375072 13.762012967856583 12.39523687385042 13.99294697888577 12.471338545490376 14.198421041650876 L 14.095889213408789 18.58470716698944 C 14.179715062747537 18.811034633937332 14.11101182442124 19.065621144457776 13.924704773634122 19.219051060261858 L 13.089640304837147 19.906750726000304 C 12.8395738353742 20.112687461058933 12.468072453558026 20.06749691769821 12.274671093639828 19.807613458022956 L 9.607365084465503 16.223420921312737 C 9.56834422222431 16.270976714622584 9.52642409082075 16.320234738395513 9.48167243355616 16.370965818504825 C 8.970713538538526 16.950199820366628 8.090632204658975 17.721733976075186 6.942690253941884 18.35074632787179 C 6.899348233883752 18.374495397592536 6.855623536240432 18.398041237427346 6.811523367746106 18.42136655121571 C 6.799070851748958 18.427953505674882 6.7865880674682355 18.434520281280136 6.774075735577358 18.44107120207159 C 6.773597929100935 18.44132199639892 6.773119401951094 18.44157134937954 6.7726415954746715 18.44182214370687 L 6.778534542017218 18.448886183926653 C 6.777970975404002 18.449207604242712 6.777407408790785 18.449529024558775 6.77684312150415 18.449850444874833 C 6.763013398604373 18.457730287331792 6.748937926068908 18.46562886729597 6.734621748611686 18.47353897803381 C 6.694498976713706 18.495706890415015 6.652483716418914 18.517968490332294 6.608680465372983 18.540195497928558 C 6.4575617355878165 18.61687946687636 6.285173050530943 18.693165624132536 6.095891780545942 18.763855032118478 C 5.375240702986375 19.07325019258741 4.57565498657898 19.31129580827777 3.7157341312434546 19.416465112231407 C 3.5994779780751074 19.43068399751363 3.482119194576553 19.442472772244827 3.3637031831731545 19.451681536367293 C 3.4678898582662527 19.506547840184126 3.574899771476072 19.559629756775482 3.684506991685933 19.610430021526817 C 4.83241867411945 20.142462801369135 6.265291112263144 20.42427635121864 7.725227719962767 19.88439111450683 C 7.726463674875384 19.88393420760014 7.727699629788001 19.883477300693457 7.728935584700618 19.88301895244006 C 7.788277995994855 19.861018236277076 7.8476636476941986 19.837658330167702 7.907077405656861 19.812903200444218 L 7.838817381482903 19.719821029990502 L 12.633190264496303 25.466719710920465 C 13.229508601887115 26.181512370744052 14.259284614877005 26.354407673850357 15.057499610442534 25.875476989453315 C 15.655776738184654 25.516512474322358 16.404356072728852 25.5158148625153 17.002633200470974 25.874782260339675 L 17.03056938486321 25.891542239869498 C 17.584440057908168 26.223864902435164 18.269705349949135 26.250183893337685 18.847433195837983 25.961320716735482 L 21.288209929395467 24.740929575708805 C 21.675707378407235 24.54718375111313 21.98484024124516 24.226138185197044 22.163806512592092 23.831596909253 L 25.607086094292193 16.240728612591898 C 25.878223613163357 15.642994925722766 25.819687635424348 14.94736929443268 25.452475701794704 14.403351716706766 L 21.03148299619934 7.853730299310073 Z M 7.858689230322844 19.69677101342352 L 7.983883895900047 19.598798353586872 L 12.778257499586866 25.345698475863546 C 13.31479165287794 25.98882737732605 14.241703066160852 26.144639839239762 14.960300945151296 25.71347826746547 C 15.618275776182942 25.31869628662106 16.441596150953092 25.317843009369454 17.099831865762212 25.712783538351832 L 17.127768050154447 25.729543517881652 C 17.626252088298962 26.028634490729434 18.242991427674564 26.052321582541705 18.762945768301112 25.79234587667709 L 21.203723943205432 24.57195473565041 C 21.552469341161085 24.397583493514304 21.830689638388638 24.108642484189826 21.991758706062143 23.753555191705516 L 25.43503828776224 16.162686895044413 C 25.679061189938185 15.624725856188839 25.62637996305055 14.99866394110513 25.295890664130706 14.509047112209112 L 20.874896517188503 7.95942569481242 C 20.821643075606627 7.8805328620333945 20.76186177420056 7.806251618049147 20.69617815749751 7.737366055469257 L 14.001333978216373 0.7159447913068412 C 13.495615820297601 0.18555676822759337 12.706959836954201 0.03887575569804275 12.044362606616708 0.35197094325260786 L 5.038318673133575 3.6625189202326895 C 4.8266215771415535 3.762551624852873 4.63786675908872 3.905229454546053 4.483882271455144 4.081612096014277 L 0.6083515565846971 8.52085546145388 C 0.058624620569475816 9.1505423635102 0.048131300302433844 10.086407340181426 0.5836011991228335 10.728261370480002 L 4.119442768466221 14.966586770100989 L 6.667151582504332 13.353038045970706 L 3.6410161525668947 10.16763299260863 C 3.346060377216434 9.857153218741335 3.3677933651594856 9.363858073044481 3.6889099459358654 9.080519578377073 L 4.553082053766743 8.318014739125736 C 4.793369705614939 8.10599696230272 5.141253178162142 8.068587529149408 5.421124898528038 8.224668802224311 L 9.642861133017126 10.579098561607294 C 9.779384064058718 10.655236260152465 9.948696194292289 10.639444144937599 10.06878344735304 10.539371442946246 L 14.104234611594272 7.176495531350806 C 14.271857483335031 7.036809577088398 14.500253303105621 6.969861905158479 14.72637467756763 7.030107314892521 C 14.915034006392522 7.080371398668186 15.183885549180413 7.166455110177369 15.451154493141416 7.30251823948723 C 15.71675147477165 7.437729532892196 15.993879231096852 7.628878771391983 16.18438348387294 7.895584125039943 C 16.541892270596765 8.396097535054421 16.645922919894772 9.032705063333 16.677471119460208 9.362951465964652 C 16.69754475685731 9.573073871865608 16.613501264146194 9.768379233600193 16.476508454035784 9.908484619754859 L 12.732659051055613 13.737422151657901 C 12.63053386227595 13.841867899563725 12.597763400592848 13.995823906916517 12.648498809250711 14.132806615426587 L 14.273049477169124 18.51909274076515 C 14.384817276287455 18.820863177144574 14.293212478070112 19.160310416491797 14.04480211612273 19.364883637563906 L 13.209737647325756 20.052584744649057 C 12.876316648939717 20.32716561671385 12.380981953633766 20.266913000246266 12.123113473742835 19.920400279332554 L 9.596869196799407 16.525760689642134 C 9.07295331439172 17.11210917885853 8.197963538213417 17.87296727949507 7.065978738327326 18.498536254004375 L 7.068158054744675 18.501147974240702 L 6.87215722580618 18.612976299988954 C 6.677109847800275 18.724261238027992 6.437777088231506 18.837590005700093 6.166239595613108 18.939246747724408 C 5.518141233444411 19.21713551048588 4.806220033339063 19.438942914155 4.043551893801157 19.560957237094275 C 5.1557621357587955 20.015372055321492 6.490734333038405 20.198381288283386 7.834415508243098 19.638514662147607 L 7.858689230322844 19.69677101342352 ZM 20.832905759789938 7.6069955249857655 L 20.69617815749751 7.737366055469257" fill="rgb(33.78810614347458,71.62624776363373,185.14062702655792)"/>
        </svg>