<svg 
          width="5.100844860076904" 
          height="5.1008453369140625" fill="none" 
          xmlns="http://www.w3.org/2000/svg">
          <path d="M 5.100844860076904 2.5504226684570312 C 5.100844860076904 3.958981996437716 3.9589816263442117 5.1008453369140625 2.550422430038452 5.1008453369140625 C 1.1418630535643692 5.1008453369140625 0 3.958981996437716 0 2.5504226684570312 C 0 1.1418631603080063 1.1418630535643692 0 2.550422430038452 0 C 3.9589816263442117 0 5.100844860076904 1.1418631603080063 5.100844860076904 2.5504226684570312 Z M 2.550422430038452 3.022723162615741 C 2.8112667056319274 3.022723162615741 3.0227228800455728 2.81126696843475 3.0227228800455728 2.5504226684570312 C 3.0227228800455728 2.2895783684793125 2.8112667056319274 2.078122174298322 2.550422430038452 2.078122174298322 C 2.289578154444977 2.078122174298322 2.078121980031331 2.2895783684793125 2.078121980031331 2.5504226684570312 C 2.078121980031331 2.81126696843475 2.289578154444977 3.022723162615741 2.550422430038452 3.022723162615741 Z M 4.911924680074056 2.5504226684570312 C 4.911924680074056 3.8546443485139648 3.8546439881741508 4.911925139250579 2.550422430038452 4.911925139250579 C 1.2462007818185916 4.911925139250579 0.1889201800028483 3.8546443485139648 0.1889201800028483 2.5504226684570312 C 0.1889201800028483 1.2462008983159278 1.2462007818185916 0.1889201976634838 2.550422430038452 0.1889201976634838 C 3.8546439881741508 0.1889201976634838 4.911924680074056 1.2462008983159278 4.911924680074056 2.5504226684570312 Z M 3.211643060048421 2.5504226684570312 C 3.211643060048421 2.9156047965268415 2.9156045239703112 3.2116433602792247 2.550422430038452 3.2116433602792247 C 2.185240336106593 3.2116433602792247 1.889201800028483 2.9156047965268415 1.889201800028483 2.5504226684570312 C 1.889201800028483 2.185240540387221 2.185240336106593 1.889201976634838 2.550422430038452 1.889201976634838 C 2.9156045239703112 1.889201976634838 3.211643060048421 2.185240540387221 3.211643060048421 2.5504226684570312 Z" fill="rgb(33.78810614347458,71.62624776363373,185.14062702655792)"/>
        </svg>