<svg 
          width="13.596102714538574" 
          height="12.839128494262695" fill="none" 
          xmlns="http://www.w3.org/2000/svg">
          <path d="M 0.8713507665844298 4.870265025915812 C -0.19919700200390422 6.948387497259201 -1.150095605021836 10.481195590441962 3.6106935729598475 7.9874489130992306 L 6.444497650307407 6.1927070899570635 L 3.259999137591181 2.8406029721087074 C 3.038782321121031 2.607743326689734 3.055081790717427 2.237772335400993 3.2959193000069913 2.0252686489611813 L 4.021852143686998 1.3847396799484264 L 3.677602329924459 1.1927541940733317 C 3.4676982836709347 1.0756924309292715 3.206785697002531 1.1037501358034951 3.026570150539356 1.262763915554823 L 2.162398101471989 2.0252688291295162 C 1.9215607723507673 2.237772335400993 1.905261302754371 2.607743326689734 2.126477939056179 2.8406029721087074 L 5.310976451772405 6.1927070899570635 L 3.2328535337848647 7.515148433324976 L 3.231945845676068 7.514089043515912 L 3.2319004432537937 7.514037155035468 C 2.099333416259917 6.1927070899570635 2.0989928080086897 6.19230963861033 0.8713547302879616 4.775804929960961 C 0.8006080272944511 4.929089626915771 0.7275809335917222 5.088995510177232 0.653732047037415 5.254194739117314 C 0.7268864747161052 5.120181928270724 0.7997179956832052 4.99187432791628 0.8713507665844298 4.870265025915812 Z M 8.69369329205685 3.3580332775807515 L 9.03285947587143 3.5471833642857535 C 9.237643858508523 3.6613902700795546 9.491611315915733 3.637701737410213 9.671742183257999 3.487593047862576 L 13.596102714538574 0.21729294363849583 C 13.384534633475036 0.12115961309714152 13.17896687888537 0.05644279954152159 13.026227364968396 0.01574866194574543 C 12.866789912755939 -0.0267300993095705 12.700423906769783 0.019087573901643312 12.573667550514235 0.12471788140831461 L 8.69369329205685 3.3580332775807515 Z M 11.681383834988832 12.509515570322584 L 9.089380446889079 9.026509968602591 C 8.926361968703926 9.225189518875792 8.712735644497297 9.45354063188286 8.453461869070976 9.695161503090125 L 10.62316507615219 12.61070243122832 C 10.81656642291914 12.870584444185159 11.188067058799932 12.91577642795848 11.438133511258416 12.709839697156522 L 11.681383834988832 12.509515570322584 Z" fill="rgb(33.78810614347458,71.62624776363373,185.14062702655792)"/>
        </svg>