<svg 
          width="10.091912269592285" 
          height="9.606771469116211" fill="none" 
          xmlns="http://www.w3.org/2000/svg">
          <path d="M 0.8867556827585373 2.14344138231092 L 5.396080114674226 0.0691521077264446 C 5.584411141079834 -0.01748017364223356 5.800061810592807 -0.022940805523408027 5.992535627359486 0.054048849842178746 L 6.099997742781889 0.0970337313427855 C 6.221244896740708 0.1455326590046539 6.32785517634389 0.22462410182518952 6.4094325091632145 0.3265957291557782 L 6.511169956370749 0.4537675460826136 C 6.664041334949793 0.6448561506140242 6.714915823939816 0.898141565771485 6.647687816836644 1.1334388846083625 L 6.596372275798092 1.3130440100983705 L 6.414720809705886 1.261143819628683 L 6.466036350744439 1.0815386941386753 C 6.5164575362401385 0.9050656149268513 6.478301489329301 0.71510162112188 6.363648135563338 0.5717850551181147 L 6.261910688355804 0.44461323819127935 C 6.200727688741311 0.3681345064328171 6.120770429459724 0.3088159975108001 6.029835154074771 0.27244179050387807 L 5.922372678315727 0.2294569146335317 C 5.778017135572397 0.17171463651264926 5.616279313605988 0.17581007101170754 5.475030953717622 0.24078430033656234 L 0.9732637720885442 2.311597170658381 L 0.5297271573768543 2.5650466290818503 C 0.3910844367813216 2.644271148736384 0.29229468968356853 2.7783055774174774 0.2576548189757006 2.9341850559799125 L 0.20244678641530028 3.1826213305739715 C 0.15415372660004711 3.3999400119276797 0.23755878820698093 3.625405184567304 0.4156548014023527 3.7589773013092684 L 0.727667551239318 3.9929867769111906 C 0.8257716340119319 4.066565001218739 0.9450937345085222 4.106338962123702 1.0677238604953296 4.106338962123702 L 1.4455642141224716 4.106338962123702 L 5.97538036022021 9.257894952968886 C 6.137736159525859 9.44253506265644 6.414820983292072 9.471180386049273 6.611515783470911 9.323659276730828 C 6.831094843043587 9.158974611461801 6.863848723033211 8.842147879503015 6.682603716672004 8.636025939290818 L 2.201244831292595 3.5395783963978107 L 5.3184279288848355 2.028216887795436 L 9.09587260935467 6.157052388487887 C 9.257196764857262 6.333383855390999 9.526003574970792 6.3584971588092865 9.71719891733536 6.21510046294 C 9.939912905684354 6.048064961279017 9.966649884443294 5.723966995789691 9.774320202332996 5.522691223363422 L 6.0741082758024785 1.650376510644842 L 6.184149320564204 1.5770159296819817 C 6.200624632461997 1.566032507845198 6.216445573019814 1.5542393194416118 6.231566019147612 1.541700053976477 C 6.3191436777121375 1.469072037450288 6.38321369449397 1.37141710822086 6.414720809705886 1.261143819628683 L 6.596372275798092 1.3130440100983705 C 6.55559153679453 1.4557759749078687 6.4738931308638445 1.582654387706539 6.362324979417747 1.6785413250970451 L 9.910907968107237 5.392174401190339 C 10.181471779682068 5.675323347915389 10.143859120425793 6.13125552641915 9.830551455827472 6.366236469665572 C 9.561583214898794 6.567963023257741 9.18343297176043 6.532634175432355 8.956486469226766 6.284576254334855 L 5.274114089116701 2.2596569828190574 L 2.5070524490460566 3.601262628120189 L 6.824476900295788 8.5112752244053 C 7.0784400028217735 8.800095870212104 7.032544645536482 9.244037125568244 6.72486760128974 9.4747952834564 C 6.449256914721679 9.681503851756597 6.061001751160984 9.64136595082161 5.833506816259785 9.382645667854407 L 1.3601156046010356 4.295259150698999 L 1.0677238604953296 4.295259150698999 C 0.9042171459584668 4.295259150698999 0.745120861822746 4.242227322937936 0.6143154631680076 4.144122783636763 L 0.30230264576792204 3.9101133080348403 C 0.06484140744595993 3.7320172724911087 -0.04636541643341867 3.4313970423049436 0.01802535626146563 3.141638800499999 L 0.07323338319160588 2.89320252590594 C 0.11941988685252986 2.6853632211560265 0.251139560910054 2.506650649581235 0.43599652545760426 2.4010179567085235 L 0.8867556827585373 2.14344138231092 ZM 6.099997742781889 0.0970337313427855 L 6.030218552260749 0.27148327245821985" fill="rgb(33.78810614347458,71.62624776363373,185.14062702655792)"/>
        </svg>