<svg 
          width="9.714059829711914" 
          height="9.228926658630371" fill="none" 
          xmlns="http://www.w3.org/2000/svg">
          <path d="M 0.2267270331534304 3.570057349235436 L 0.5387398114441492 3.8040668403395146 C 0.6368439031632865 3.8776450695213143 0.7561659694992763 3.917419033061137 0.87879610666924 3.917419033061137 L 1.2566364947532311 3.917419033061137 L 5.786453144028102 9.068975365175522 C 5.948808958139659 9.253615487094716 6.225894167511075 9.282260812385184 6.422588985627339 9.134739693294076 C 6.642168065224352 8.970055017115373 6.67492194820094 8.653228264168135 6.49367692531124 8.447106310301214 L 2.0123172709212134 3.3506584297897115 L 5.129500652782476 1.8392968210659104 L 8.906946038070034 5.968132595276575 C 9.068270208284453 6.144464073860915 9.337077042911606 6.169577378942853 9.52827240271208 6.026180673574131 C 9.750986411371299 5.859145160847739 9.777723392568495 5.535047173888269 9.585393692918846 5.333771388128316 L 5.8851814289504585 1.4614565089691318 L 5.995222483747289 1.3880959231464376 C 6.107122155107667 1.313496229540426 6.188847233402635 1.2015357471891757 6.225793993915754 1.072223702083751 L 6.277109539633987 0.892618564695649 C 6.327530729727806 0.7161454737932161 6.289374679337358 0.526181422361833 6.174721315115674 0.38286484686394007 L 6.072983858630275 0.25569304403354265 C 6.011800853436247 0.17921430720868187 5.9318432265263485 0.11989577183601696 5.8409079428486255 0.08352156241945473 L 5.733445457289627 0.040536680886408376 C 5.589089901381908 -0.017205601059660312 5.427352064665947 -0.01311015221364465 5.28610369189655 0.05186408141548315 L 0.7843360096482422 2.122677122701623 L 0.34079939953066934 2.3761265979150665 C 0.20215666629172452 2.4553511228178957 0.1033669214454404 2.589385560378214 0.0687270475786171 2.7452650492670174 L 0.0135190142062598 2.9937013403189483 C -0.034774050013040375 3.211020036069117 0.048631003716734955 3.436485223644873 0.2267270331534304 3.570057349235436 Z" fill="rgb(45.40423482656479,97.8031799197197,255)"/>
        </svg>